<?xml version="1.0" encoding="UTF-8" standalone="no"?>
<svg
   viewBox="0 0 588.07158 588.60052"
   height="588.60052"
   width="588.07159"
   id="svg885"
   version="1.1"
   sodipodi:docname="lesswrong.svg"
   inkscape:version="1.3.2 (091e20e, 2023-11-25)"
   xmlns:inkscape="http://www.inkscape.org/namespaces/inkscape"
   xmlns:sodipodi="http://sodipodi.sourceforge.net/DTD/sodipodi-0.dtd"
   xmlns="http://www.w3.org/2000/svg"
   xmlns:svg="http://www.w3.org/2000/svg"
   xmlns:rdf="http://www.w3.org/1999/02/22-rdf-syntax-ns#"
   xmlns:cc="http://creativecommons.org/ns#"
   xmlns:dc="http://purl.org/dc/elements/1.1/">
  <sodipodi:namedview
     id="namedview1"
     pagecolor="#505050"
     bordercolor="#eeeeee"
     borderopacity="1"
     inkscape:showpageshadow="0"
     inkscape:pageopacity="0"
     inkscape:pagecheckerboard="0"
     inkscape:deskcolor="#d1d1d1"
     inkscape:zoom="1.0039689"
     inkscape:cx="-18.924888"
     inkscape:cy="354.59264"
     inkscape:current-layer="svg885" />
  <metadata
     id="metadata891">
    <rdf:RDF>
      <cc:Work
         rdf:about="">
        <dc:format>image/svg+xml</dc:format>
        <dc:type
           rdf:resource="http://purl.org/dc/dcmitype/StillImage" />
      </cc:Work>
    </rdf:RDF>
  </metadata>
  <defs
     id="defs889" />
  <g
     transform="translate(-250.88152,447.238)"
     id="g893">
    <path
       style="fill:#000000;fill-opacity:1"
       d="M 543.99581,140.40179 C 543.72792,139.62232 535.15349,94.209567 524.94152,39.484567 C 502.5915,-80.287133 504.53201,-70.516033 503.09642,-70.512633 C 502.44792,-70.512633 483.4126,-60.231433 460.79571,-47.668933 C 438.17883,-35.106433 418.94133,-24.546733 418.04571,-24.203033 C 416.97772,-23.793233 416.41732,-24.106033 416.41732,-25.110733 C 416.41732,-25.953733 426.76732,-45.260833 439.41732,-68.015433 C 460.27762,-105.53863 463.7825,-112.51543 461.77252,-112.51543 C 461.41788,-112.51543 445.33038,-115.46363 426.02252,-119.06713 C 286.19555,-145.16283 251.81442,-151.72713 251.06666,-152.47083 C 250.59879,-152.93603 251.04876,-153.57293 252.06666,-153.88603 C 253.08452,-154.19913 299.81732,-163.01943 355.91732,-173.48673 C 412.01732,-183.95403 458.92982,-192.75113 460.16732,-193.03583 C 461.40482,-193.32053 462.41732,-194.20473 462.41732,-195.00063 C 462.41732,-195.79653 452.22729,-214.77553 439.77282,-237.17613 C 427.31834,-259.57683 416.89727,-278.78813 416.61489,-279.86793 C 416.20968,-281.41743 416.50362,-281.72223 418.00939,-281.31403 C 419.05875,-281.02963 438.59232,-270.40613 461.41732,-257.70643 C 484.24232,-245.00683 503.26402,-234.96263 503.68776,-235.38623 C 504.1115,-235.80973 513.23805,-283.14963 523.96897,-340.58583 C 534.69989,-398.02213 543.70545,-445.65323 543.98131,-446.43263 C 544.28066,-447.27843 544.83448,-447.48003 545.35493,-446.93263 C 546.0337,-446.21873 585.41732,-239.06303 585.41732,-236.20663 C 585.41732,-234.10803 592.38855,-237.59013 630.17344,-258.56193 C 653.01101,-271.23743 672.32248,-281.47493 673.08782,-281.31193 C 674.03183,-281.11073 666.91185,-267.36153 650.94833,-238.55893 C 638.00628,-215.20783 627.41732,-195.55223 627.41732,-194.87983 C 627.41732,-193.37003 618.85403,-195.08143 736.91732,-172.99603 C 791.36732,-162.81043 836.75012,-154.21573 837.76798,-153.89673 C 838.78585,-153.57773 839.23585,-152.93403 838.76798,-152.46623 C 838.30012,-151.99843 790.55482,-142.73333 732.66732,-131.87703 C 658.14703,-117.90133 627.41732,-111.76483 627.41732,-110.85923 C 627.41732,-110.15573 637.25979,-91.879433 649.28949,-70.245333 C 675.4327,-23.229533 674.62654,-24.762733 673.55198,-24.098633 C 673.08007,-23.807033 653.65756,-34.131433 630.39084,-47.041933 C 592.35873,-68.145533 585.41732,-71.692433 585.41732,-70.022433 C 585.41732,-69.751233 577.52941,-27.338733 567.88863,24.227617 C 558.24785,75.793937 549.43993,122.93457 548.31548,128.98457 C 546.31153,139.76653 544.98368,143.27614 543.99581,140.40179 Z M 544.40201,-47.706433 C 544.41311,-120.72883 544.11075,-148.58683 543.30166,-149.08693 C 542.64907,-149.49023 535.50482,-143.09523 526.08918,-133.67963 L 509.99235,-117.58273 L 525.77859,-32.799133 C 534.46103,13.831917 541.80584,52.831527 542.1004,53.866697 C 543.98408,60.486487 544.38827,42.649357 544.40201,-47.706433 Z M 476.3751,-72.428133 C 489.17225,-79.530033 499.9963,-85.717533 500.42854,-86.178133 C 501.59893,-87.425133 498.41005,-103.83213 496.73705,-105.17113 C 495.29864,-106.32233 478.72628,-109.21063 478.05431,-108.42723 C 477.24454,-107.48313 451.41732,-60.614633 451.41732,-60.089233 C 451.41732,-58.749433 454.25636,-60.153233 476.3751,-72.428133 Z M 638.41732,-60.224733 C 638.41732,-60.614833 632.48718,-71.639833 625.23924,-84.724733 C 613.29592,-106.28633 611.82018,-108.51203 609.48924,-108.47863 C 606.08482,-108.42963 593.5563,-105.98773 592.79239,-105.22383 C 591.91386,-104.34533 589.4934,-92.529033 589.45245,-88.918833 C 589.41825,-85.904533 590.0488,-85.472733 613.16732,-72.678833 C 626.22982,-65.450033 637.25482,-59.531033 637.66732,-59.525533 C 638.07982,-59.515533 638.41732,-59.834633 638.41732,-60.224733 Z M 666.97529,-134.02013 C 712.59341,-142.54773 751.37982,-149.79783 753.16732,-150.13143 C 754.95482,-150.46503 756.41732,-151.13793 756.41732,-151.62673 C 756.41732,-152.13933 712.40154,-152.51543 652.41732,-152.51543 C 570.39323,-152.51543 548.41732,-152.25373 548.41732,-151.27683 C 548.41732,-149.07843 579.71249,-118.51543 581.96357,-118.51543 C 583.1019,-118.51543 621.35718,-125.49253 666.97529,-134.02013 Z M 541.41732,-154.77713 C 541.41732,-155.47113 534.24089,-163.20483 525.46969,-171.96313 L 509.52206,-187.88743 L 427.71969,-172.60053 C 330.90153,-154.50743 336.25929,-155.58013 336.96945,-154.43113 C 337.30598,-153.88653 378.85427,-153.51543 439.47634,-153.51543 C 520.86755,-153.51543 541.41732,-153.76973 541.41732,-154.77713 Z M 563.15628,-171.75403 C 573.46068,-182.04423 579.41354,-188.72953 579.407,-190.00403 C 579.3855,-194.19533 547.37328,-362.95943 546.41868,-363.91403 C 545.7502,-364.58253 545.41732,-330.11023 545.41732,-260.21543 C 545.41732,-202.63043 545.74985,-155.51543 546.15628,-155.51543 C 546.56271,-155.51543 554.21271,-162.82283 563.15628,-171.75403 Z M 489.41732,-198.57373 C 492.99232,-199.23493 496.42935,-200.27973 497.05517,-200.89563 C 498.42396,-202.24273 501.38131,-217.96363 500.52234,-219.32663 C 499.55722,-220.85803 452.37768,-246.80913 451.73215,-246.16363 C 451.24453,-245.67603 472.55255,-206.04623 477.25382,-198.69713 C 478.27559,-197.09983 479.38697,-196.53323 480.82709,-196.87523 C 481.97672,-197.14823 485.84232,-197.91253 489.41732,-198.57373 Z M 622.70954,-216.52433 C 638.51742,-244.94323 638.79386,-245.47223 638.16502,-246.10103 C 637.84843,-246.41763 626.7588,-240.67793 613.52138,-233.34603 C 592.60431,-221.76063 589.451,-219.70323 589.43534,-217.63073 C 589.40674,-213.84093 591.65303,-202.11453 592.61818,-201.01543 C 593.55395,-199.94983 607.91476,-196.60253 610.39251,-196.87253 C 611.20387,-196.96053 616.74653,-205.80423 622.70954,-216.52433 Z"
       id="path941" />
  </g>
</svg>
