<svg viewBox="0 0 256 256" version="1.1" xmlns="http://www.w3.org/2000/svg">
  <path style="-inkscape-stroke:none" d="M 48 32 C 39.274396 32 32 39.274396 32 48 L 32 208 C 32 216.7256 39.274396 224 48 224 L 208 224 C 216.7256 224 224 216.7256 224 208 L 224 48 C 224 39.274396 216.7256 32 208 32 L 136 32 L 48 32 z M 48 48 L 80 48 L 80 96 L 80 145.39453 C 70.720092 148.72182 64 157.63945 64 168 C 64 181.16005 74.839949 192 88 192 C 101.16005 192 112 181.16005 112 168 C 112 157.63945 105.27991 148.72182 96 145.39453 L 96 115.3125 L 144 163.31445 L 144 208 L 48 208 L 48 48 z M 96 48 L 128 48 L 128 72 A 8.0008 8.0008 0 0 0 130.34375 77.65625 L 146.36328 93.677734 C 144.85028 96.812005 144 100.31476 144 104 C 144 117.16005 154.83995 128 168 128 C 181.16005 128 192 117.16005 192 104 C 192 90.839949 181.16005 80 168 80 C 164.31476 80 160.812 80.850278 157.67773 82.363281 L 144 68.685547 L 144 48 L 208 48 L 208 208 L 160 208 L 160 160 A 8.0008 8.0008 0 0 0 157.65625 154.34375 L 96 92.685547 L 96 48 z M 168 96 C 172.51303 96 176 99.486974 176 104 C 176 108.51303 172.51303 112 168 112 C 163.48697 112 160 108.51303 160 104 C 160 101.86145 160.78964 99.958878 162.09375 98.542969 A 8 8 0 0 0 162.34766 98.347656 A 8 8 0 0 0 162.74805 97.908203 C 164.14043 96.714797 165.96401 96 168 96 z M 88 160 C 92.513026 160 96 163.48697 96 168 C 96 172.51303 92.513026 176 88 176 C 83.486974 176 80 172.51303 80 168 C 80 163.48697 83.486974 160 88 160 z" color="#000" fill="#000" stroke-linecap="round" stroke-linejoin="round" fill-opacity="1" />
</svg>
