<svg data-name="Layer 2" viewBox="0 0 294.066 216.46" version="1.1" width="294.066" height="216.461" xmlns="http://www.w3.org/2000/svg">
  <path class="cls-1" d="M 290.9,18.22 C 287.82,16.76 286.51,19.68 284.6,21.15 C 284.01,21.59 283.43,22.32 282.99,22.76 C 278.45,27.59 273.18,30.82 266.15,30.38 C 256.04,29.79 247.4,33.02 239.64,40.78 C 238.03,31.11 232.61,25.4 224.41,21.74 C 220.16,19.84 215.77,17.93 212.69,13.83 C 210.64,10.9 210.05,7.53 209.03,4.31 C 208.3,2.41 207.71,0.36 205.37,0.06 C 202.88,-0.38 202,1.67 200.98,3.43 C 197.17,10.46 195.71,18.22 195.85,25.99 C 196.14,43.57 203.61,57.63 218.41,67.59 C 220.17,68.76 220.46,69.93 220.02,71.54 C 218.99,74.91 217.82,78.28 216.8,81.79 C 216.07,83.99 215.04,84.43 212.7,83.55 C 204.64,80.18 197.61,75.2 191.46,69.05 C 180.91,58.94 171.39,47.67 159.68,38.88 C 156.9,36.83 154.11,34.93 151.18,33.02 C 139.17,21.3 152.79,11.64 155.87,10.46 C 159.09,9.29 157.04,5.19 146.35,5.19 C 135.66,5.19 125.84,8.85 113.4,13.54 C 111.5,14.27 109.74,14.71 107.69,15.15 C 96.41,12.95 84.69,12.51 72.39,13.98 C 49.25,16.62 30.79,27.45 17.32,46.2 C 1.05,68.61 -2.91,94.09 1.93,120.75 C 6.91,148.72 21.12,172.01 43.09,190.03 C 65.79,208.78 92.01,218 121.89,216.25 C 140.05,215.22 160.26,212.73 183.11,193.4 C 188.82,196.33 194.97,197.35 204.93,198.23 C 212.69,198.96 220.02,197.79 225.87,196.62 C 234.8,194.72 234.22,186.37 231,184.9 C 204.64,172.6 210.35,177.58 205.08,173.48 C 218.55,157.66 238.77,141.11 246.68,87.5 C 247.27,83.25 246.68,80.62 246.68,77.1 C 246.68,75.05 247.12,74.17 249.46,74.02 C 256.05,73.29 262.5,71.38 268.35,68.16 C 285.49,58.79 292.37,43.41 293.98,24.95 C 294.27,22.17 293.98,19.24 290.9,17.77 V 18.21 Z M 141.8,184.02 C 116.17,163.81 103.87,157.22 98.59,157.51 C 93.76,157.8 94.64,163.22 95.66,166.88 C 96.69,170.4 98.15,172.89 100.2,175.96 C 101.52,178.01 102.54,181.09 98.88,183.28 C 90.68,188.41 76.32,181.52 75.59,181.23 C 58.89,171.42 44.98,158.38 35.17,140.66 C 25.65,123.52 20.23,105.22 19.21,85.74 C 18.92,81.05 20.38,79.3 25.07,78.42 C 31.22,77.25 37.67,76.96 43.82,77.98 C 69.89,81.79 92.15,93.51 110.75,111.96 C 121.44,122.51 129.5,135.1 137.7,147.4 C 146.49,160.44 156.01,172.89 168.02,183.14 C 172.27,186.66 175.64,189.44 179,191.49 C 169.19,192.66 152.78,192.81 141.5,184.02 H 141.79 Z M 154.1,105.08 C 154.1,102.88 155.71,101.27 157.91,101.27 C 160.11,101.27 158.79,101.27 159.23,101.56 C 159.67,101.71 160.26,102 160.55,102.44 C 161.28,103.17 161.58,104.05 161.58,105.08 C 161.58,107.13 159.97,108.89 157.77,108.89 C 155.57,108.89 154.11,107.28 154.11,105.08 V 105.08 Z M 192.19,124.56 C 189.7,125.59 187.36,126.46 185.01,126.46 C 181.35,126.61 177.39,125.14 175.2,123.38 C 171.83,120.6 169.49,118.99 168.46,114.01 C 168.02,111.96 168.31,108.74 168.61,106.83 C 169.49,102.88 168.61,100.24 165.68,97.9 C 163.34,96 160.41,95.41 157.18,95.41 C 153.95,95.41 154.84,94.97 154.1,94.53 C 152.78,93.8 151.61,92.19 152.78,90.14 C 153.07,89.41 154.68,87.8 155.12,87.65 C 159.51,85.16 164.49,85.89 169.18,87.8 C 173.43,89.56 176.8,92.78 181.48,97.47 C 186.31,103.04 187.19,104.5 189.83,108.75 C 192.03,111.97 193.93,115.34 195.25,119.15 C 196.13,121.49 194.96,123.54 192.17,124.72 V 124.57 Z" fill="#fff" fill-opacity="1" transform="translate(-.001)" data-name="Layer 1" />
</svg>
