<svg width="100%" height="100%" fill="#fff" fill-rule="evenodd" viewBox="0 0 252 300" focusable="false" class="chakra-icon custom-euf446" version="1.1" xmlns="http://www.w3.org/2000/svg">
  <path d="M 126 0 C 111.959 0.377 97.882063 3.10325 85.664062 8.40625 C 77.204062 12.08325 69.310109 16.940047 62.162109 22.748047 C 58.935109 25.370047 56.276656 27.903359 53.347656 30.818359 C 45.450656 31.091359 33.909734 22.318375 28.552734 14.109375 C 37.773734 44.339375 79.850422 80.039219 108.98242 93.699219 C 108.99442 93.695219 109.00272 93.686641 109.01172 93.681641 C 114.23972 89.689641 120.119 87.693359 126 87.693359 C 131.881 87.693359 137.76028 89.689641 142.98828 93.681641 C 142.99728 93.687641 143.00558 93.694219 143.01758 93.699219 C 172.14858 80.039219 214.22627 44.339375 223.44727 14.109375 C 218.08927 22.318375 206.54934 31.091359 198.65234 30.818359 C 195.72434 27.902359 193.06589 25.370047 189.83789 22.748047 C 182.68989 16.940047 174.79594 12.08325 166.33594 8.40625 C 154.11894 3.10325 140.042 0.377 126 0 z M 38.167969 54.917969 L 35.851562 59.277344 C 28.393562 74.193344 24.521484 89.050484 24.521484 105.77148 L 24.537109 132.30273 L 24.396484 146.05664 C 23.855484 179.82264 16.55 213.986 0 245.25 L 34.628906 217.32812 L 59.128906 257.08789 L 84.867188 232.85547 L 126 299.60352 L 167.13281 232.85547 L 192.87109 257.08594 L 217.37305 217.32617 L 252 245.24805 C 235.45 213.98405 228.14352 179.82264 227.60352 146.05664 L 227.46484 132.30273 L 227.48047 105.76953 C 227.48047 89.049531 223.60639 74.192391 216.15039 59.275391 L 213.83398 54.917969 C 209.27398 61.332969 203.60397 68.520625 197.16797 75.015625 L 197.16797 75.017578 L 199.17773 79.191406 C 203.08173 87.301406 204.37503 96.367234 201.33203 104.99023 C 199.37203 110.54423 195.79269 115.30736 191.17969 118.94336 C 186.70069 122.47436 181.39866 124.85547 175.84766 126.10547 C 172.23166 126.91947 168.54672 127.25463 164.88672 127.14062 C 165.74072 131.98163 166.11467 137.00119 166.13867 142.11719 L 198.80273 160.98438 L 173.59766 175.11328 A 41.865 41.865 0 0 0 167.86328 178.98242 C 147.08128 197.64042 134.58895 252.83783 126.00195 279.79883 C 117.41595 252.83783 104.92162 197.64042 84.140625 178.98242 A 41.926 41.926 0 0 0 78.40625 175.11328 L 53.199219 160.98438 L 85.863281 142.11719 C 85.887281 137.00119 86.261234 131.98163 87.115234 127.14062 C 83.455234 127.25463 79.770297 126.91947 76.154297 126.10547 C 70.603297 124.85547 65.302266 122.47436 60.822266 118.94336 C 56.208266 115.30736 52.628969 110.54423 50.667969 104.99023 C 47.625969 96.367234 48.919219 87.300406 52.824219 79.191406 L 54.833984 75.017578 C 48.396984 68.521578 42.727969 61.332969 38.167969 54.917969 z M 67.638672 86.324219 C 65.173672 91.443219 64.902875 95.910578 66.171875 99.517578 C 67.072875 102.05958 68.769047 104.2703 70.998047 106.0293 C 73.414047 107.9303 76.429672 109.3145 79.763672 110.0625 C 86.089672 111.4875 93.474641 110.65523 100.18164 106.86523 C 91.005641 102.28923 79.328672 95.553219 67.638672 86.324219 z M 184.36328 86.324219 C 172.67228 95.553219 160.99536 102.28923 151.81836 106.86523 C 158.52536 110.65523 165.91033 111.4875 172.23633 110.0625 C 175.57033 109.3145 178.58695 107.9303 181.00195 106.0293 C 183.23195 104.2703 184.92812 102.05958 185.82812 99.517578 C 187.09812 95.910578 186.82828 91.443219 184.36328 86.324219 z M 126 103.89062 C 122.687 103.89063 119.32991 105.0662 116.25391 107.4082 C 107.67791 113.9462 101.31864 124.35925 102.43164 147.90625 A 5.95 5.95 0 0 1 98.591797 153.75195 L 86.443359 160.76953 C 111.24636 174.67153 117.991 200.48591 126 225.62891 C 134.01 200.48591 140.75264 174.67153 165.55664 160.76953 L 153.4082 153.75195 A 5.95 5.95 0 0 1 149.56836 147.90625 C 150.68136 124.35925 144.32405 113.9462 135.74805 107.4082 C 132.67105 105.0662 129.313 103.89062 126 103.89062 z" />
</svg>
