<svg version="1.1" viewBox="0 0 225.408 225.422" height="225.422" width="225.408" xml:space="preserve" xmlns="http://www.w3.org/2000/svg">
  <path d="M 2080,709.24023 C 2077.376,709.24023 2075.5833,709.38924 2075.7109,709.5957 C 2075.8315,709.79077 2074.6165,710.07227 2073.0117,710.22265 C 2071.4069,710.37303 2069.999,710.64985 2069.8828,710.83789 C 2069.7666,711.02592 2069.1653,711.17968 2068.5449,711.17968 C 2067.9246,711.17968 2066.7567,711.46673 2065.9492,711.8164 C 2065.1417,712.16606 2064.0433,712.61871 2063.5098,712.82226 C 2062.9763,713.02582 2062.0456,713.43793 2061.4414,713.73828 C 2060.8373,714.03863 2060.0958,714.28515 2059.793,714.28515 C 2059.4902,714.28515 2059.2422,714.4406 2059.2422,714.63086 C 2059.2422,714.82112 2058.805,715.08681 2058.2715,715.2207 C 2057.738,715.3546 2057.3027,715.63442 2057.3027,715.84375 C 2057.3027,716.05307 2057.1192,716.22461 2056.8945,716.22461 C 2055.2885,716.22461 2047.4442,723.70372 2014.6055,756.54882 C 1982.1442,789.01631 1974.2734,797.26195 1974.2734,798.80273 C 1974.2734,799.05047 1974.1111,799.2539 1973.9121,799.2539 C 1973.7131,799.2539 1973.4272,799.64682 1973.2773,800.12695 C 1973.1275,800.60709 1972.8969,801.08666 1972.7656,801.19336 C 1972.6343,801.30006 1972.2018,802.08588 1971.8047,802.93945 C 1971.4076,803.79302 1970.9281,804.79547 1970.7383,805.16601 C 1970.5486,805.53656 1970.3926,806.03409 1970.3926,806.27148 C 1970.3926,806.50887 1970.1483,807.25335 1969.8477,807.92578 C 1969.2641,809.23115 1969.0482,810.06996 1968.3164,813.92382 C 1968.0607,815.2701 1967.7251,816.24468 1967.5703,816.08984 C 1967.4155,815.935 1967.2891,818.5544 1967.2891,821.91015 C 1967.2891,825.34937 1967.4393,827.91841 1967.6328,827.79882 C 1967.8216,827.68213 1968.0961,828.7174 1968.2441,830.09961 C 1968.3921,831.48182 1968.6744,832.71244 1968.8711,832.83398 C 1969.0677,832.95551 1969.2285,833.46024 1969.2285,833.95507 C 1969.2285,835.11723 1970.1156,837.39388 1972.334,841.93164 C 1974.0321,845.40503 1974.4364,846.10421 1975.3867,847.19726 C 1975.8407,847.71939 1976.2129,848.3594 1976.2129,848.62109 C 1976.2129,849.23947 2052.7156,925.73828 2053.334,925.73828 C 2053.5926,925.73828 2054.2317,926.10852 2054.7539,926.5625 C 2055.8337,927.50138 2056.553,927.9239 2059.8242,929.54296 C 2062.7393,930.98575 2064.4909,931.73602 2066.2266,932.28515 C 2066.9735,932.52143 2068.4203,932.97902 2069.4414,933.30078 C 2070.4625,933.62254 2072.0873,933.88476 2073.0527,933.88476 C 2074.124,933.88476 2074.7148,934.03661 2074.5684,934.27343 C 2074.4128,934.52533 2076.3177,934.66211 2080,934.66211 C 2083.6822,934.66211 2085.5873,934.52533 2085.4316,934.27343 C 2085.285,934.03629 2085.884,933.88476 2086.9727,933.88476 C 2087.9524,933.88476 2089.3804,933.62282 2090.1465,933.30273 C 2090.9126,932.98264 2091.9447,932.7207 2092.4395,932.7207 C 2092.9344,932.7207 2093.4482,932.54737 2093.5801,932.33398 C 2093.712,932.12059 2094.0874,931.94531 2094.416,931.94531 C 2095.3057,931.94531 2100.4701,929.63082 2100.6914,929.13281 C 2100.7626,928.97276 2101.0658,928.84179 2101.3633,928.84179 C 2101.6609,928.84179 2103.6201,927.61093 2105.7188,926.10742 C 2108.8237,923.88298 2116.3791,916.52597 2146.2734,886.61132 C 2166.4791,866.39183 2183.0098,849.67132 2183.0098,849.45507 C 2183.0098,849.23883 2183.3249,848.72422 2183.709,848.31054 C 2184.0931,847.89687 2184.7481,846.94999 2185.1641,846.20703 C 2185.5802,845.46406 2186.1375,844.62181 2186.4043,844.33593 C 2186.671,844.05003 2186.8906,843.56656 2186.8906,843.26171 C 2186.8906,842.95687 2187.0216,842.70783 2187.1816,842.70703 C 2187.3417,842.70623 2187.7931,841.8761 2188.1855,840.86328 C 2188.578,839.85046 2189.0496,838.67288 2189.2344,838.24609 C 2190.3416,835.68897 2190.7695,834.34759 2190.7695,833.42773 C 2190.7695,832.85629 2190.9628,832.19537 2191.1992,831.95898 C 2191.4356,831.7226 2191.7237,830.36466 2191.8379,828.9414 C 2191.9678,827.32414 2192.167,826.54531 2192.3711,826.86718 C 2192.5571,827.16058 2192.6973,825.12834 2192.6973,822.14453 C 2192.6973,818.62138 2192.5753,817.09682 2192.3223,817.48828 C 2192.0443,817.91843 2191.9428,817.66658 2191.9316,816.51953 C 2191.9232,815.66595 2191.7298,814.26958 2191.5039,813.41601 C 2191.278,812.56244 2191.0074,811.33939 2190.9004,810.69921 C 2190.7933,810.05903 2190.4585,808.98493 2190.1563,808.3125 C 2189.8542,807.64007 2189.6055,806.89558 2189.6055,806.6582 C 2189.6055,806.42081 2189.4502,805.92327 2189.2598,805.55273 C 2189.0693,805.18219 2188.3715,803.7866 2187.709,802.45117 C 2186.2487,799.50713 2185.6069,798.34643 2185.2988,798.08984 C 2185.1707,797.98315 2184.8552,797.49652 2184.5977,797.00781 C 2183.7896,795.47367 2179.8449,791.12772 2173.6934,784.99609 C 2169.1795,780.49677 2167.5218,779.07812 2166.7773,779.07812 C 2166.2338,779.07812 2164.3867,780.02853 2162.625,781.21289 C 2160.8792,782.38655 2159.2661,783.3457 2159.041,783.3457 C 2158.816,783.3457 2158.5732,783.47913 2158.502,783.64062 C 2158.3725,783.9347 2151.5921,787.33449 2148.6738,788.56836 C 2146.5068,789.48459 2144.5123,790.36207 2143.8105,790.71093 C 2143.4834,790.87354 2142.6568,791.131 2141.9727,791.28125 C 2141.2887,791.4315 2140.6296,791.71513 2140.5078,791.91211 C 2140.3861,792.10908 2139.8696,792.26953 2139.3613,792.26953 C 2138.853,792.26953 2138.3291,792.44481 2138.1973,792.6582 C 2138.0654,792.87159 2137.6635,793.0475 2137.3027,793.04882 C 2136.9418,793.05013 2136.1464,793.31208 2135.5352,793.63086 C 2134.924,793.94963 2134.1145,794.20898 2133.7383,794.20898 C 2133.362,794.20898 2132.838,794.47092 2132.5723,794.79101 C 2132.3067,795.1111 2131.8043,795.38674 2131.457,795.40234 C 2131.1097,795.41794 2130.3023,795.76385 2129.6621,796.17187 C 2129.022,796.57989 2128.1282,797.07856 2127.6758,797.27929 C 2126.6429,797.73759 2122.6707,800.9254 2121.127,802.53515 C 2117.7139,806.09428 2113.1719,812.08855 2113.1719,813.03515 C 2113.1719,813.31504 2113.0409,813.60268 2112.8809,813.67382 C 2112.4592,813.86122 2111.2324,816.29204 2111.2324,816.93945 C 2111.2324,817.24224 2111.0714,817.48828 2110.875,817.48828 C 2110.6785,817.48828 2110.4037,818.0107 2110.2637,818.64843 C 2110.1236,819.28616 2109.8474,819.90755 2109.6504,820.02929 C 2109.4535,820.15103 2109.293,820.66749 2109.293,821.17578 C 2109.293,821.68408 2109.1324,822.19857 2108.9355,822.32031 C 2108.7385,822.44205 2108.4529,823.10107 2108.3027,823.78515 C 2108.1524,824.46923 2107.8973,825.29791 2107.7363,825.625 C 2106.85,827.42502 2106.0145,832.00184 2104.9414,840.91796 C 2104.0918,847.97728 2104.1435,850.84477 2105.2969,860.59765 L 2105.5078,862.38671 L 2093.7246,874.18554 C 2087.2433,880.67551 2081.5191,886.28002 2081.0059,886.63867 C 2080.2829,887.14405 2079.8899,887.19545 2079.2598,886.87304 C 2078.3782,886.42195 2032.084,840.36155 2032.084,839.93554 C 2032.084,839.79316 2033.1741,838.39075 2034.5078,836.82031 C 2036.9106,833.99092 2040.2427,829.47447 2040.752,828.35351 C 2040.8974,828.03342 2041.3613,827.2476 2041.7832,826.60742 C 2042.2051,825.96725 2042.8564,824.83085 2043.2324,824.08398 C 2043.6084,823.3371 2044.1356,822.49683 2044.4023,822.21484 C 2044.6691,821.93286 2044.8867,821.48561 2044.8867,821.2207 C 2044.8867,820.95579 2045.3239,819.83437 2045.8574,818.72851 C 2046.3909,817.62266 2046.8262,816.39617 2046.8262,816.0039 C 2046.8262,815.61164 2046.9573,815.1599 2047.1172,815 C 2047.5139,814.60332 2048.406,811.08587 2048.6504,808.95312 C 2048.7604,807.99286 2048.996,807.02658 2049.1738,806.80664 C 2049.3516,806.5867 2049.6803,804.66644 2049.9043,802.53906 C 2050.1284,800.41168 2050.424,797.75507 2050.5625,796.63476 L 2050.8145,794.59765 L 2050.3516,786.5664 C 2050.5565,786.03537 2050.9485,785.0196 2051.293,784.12304 C 2052.9477,779.81628 2053.3884,778.78466 2054.9414,775.58593 C 2056.4256,772.52896 2056.6078,772.22603 2059.0176,768.79687 C 2062.6246,763.66419 2070.1113,756.99608 2074.7617,754.77539 C 2075.0818,754.62255 2075.4304,754.39765 2075.5371,754.27539 C 2076.0118,753.73145 2082.6666,750.75586 2083.4082,750.75586 C 2083.7484,750.75586 2084.1257,750.59522 2084.2461,750.40039 C 2084.3665,750.20556 2085.1623,749.92898 2086.0137,749.78515 C 2086.865,749.64132 2087.6609,749.36474 2087.7813,749.16992 C 2087.9017,748.97509 2088.5244,748.81445 2089.166,748.81445 C 2089.8076,748.81445 2090.6928,748.62222 2091.1328,748.38671 C 2092.268,747.77916 2098.4631,746.84874 2107.9688,745.85742 C 2110.2534,745.61915 2110.3839,745.54463 2111.8828,743.60742 C 2113.4,741.64666 2117.2385,738.72851 2118.3008,738.72851 C 2118.5954,738.72851 2119.0144,738.55005 2119.2305,738.33398 C 2119.4465,738.11791 2120.6588,737.81383 2121.9258,737.65625 C 2125.7426,737.18157 2125.5558,736.83589 2116.7793,728.13476 C 2112.5545,723.94625 2108.3137,719.96095 2107.3535,719.27929 C 2106.3932,718.59763 2105.5188,717.92841 2105.4121,717.79296 C 2105.1048,717.40288 2100.0323,714.28515 2099.7051,714.28515 C 2099.5429,714.28515 2098.5348,713.87329 2097.4648,713.37109 C 2094.7691,712.10592 2093.0359,711.50339 2091.4453,711.27929 C 2090.6984,711.17407 2089.9125,710.95226 2089.6992,710.78515 C 2089.4858,710.61804 2088.1351,710.35735 2086.6973,710.20507 C 2085.2595,710.0528 2084.1782,709.7728 2084.2949,709.58398 C 2084.4132,709.39244 2082.515,709.24023 2080,709.24023 Z M 2132.6289,735.1914 C 2132.408,735.19696 2132.1856,735.21255 2131.9629,735.23632 L 2126.9395,735.77148 C 2126.9395,735.77148 2128.6621,736.08611 2129.4688,736.41015 C 2130.503,736.82556 2131.467,737.41623 2132.375,738.0625 C 2134.0646,739.26509 2135.1782,740.24745 2137.0508,742.16406 C 2138.8671,744.02298 2141.1074,747.68611 2141.1074,748.79687 C 2141.1074,749.4017 2143.4733,750.75219 2144.5352,750.7539 C 2145.0328,750.75469 2146.6911,751.16759 2148.2207,751.67187 C 2149.7503,752.17615 2152.0497,752.91155 2153.3301,753.30468 C 2154.6104,753.6978 2155.8226,754.15661 2156.0254,754.32617 C 2156.2281,754.49574 2156.6246,754.63476 2156.9063,754.63476 C 2157.7777,754.63476 2164.0558,757.75899 2166.7773,759.54687 C 2171.6447,762.74449 2175.4011,766.57119 2173.1172,770.05859 L 2168.2676,777.46484 C 2168.2676,777.46484 2172.4629,774.48734 2174.0156,772.48242 C 2175.3541,770.7541 2176.8944,770.08571 2176.9336,766.60937 C 2176.9586,764.39751 2176.8064,763.79544 2175.8496,762.34179 C 2174.209,759.84907 2170.314,756.22202 2168.2676,755.28125 C 2167.9475,755.1341 2166.811,754.48603 2165.7441,753.84179 C 2164.6771,753.19755 2163.5428,752.57633 2163.2227,752.46093 C 2162.9026,752.34552 2162.3664,752.10732 2162.0313,751.93164 C 2159.5575,750.63473 2149.841,747.26367 2148.5762,747.26367 C 2147.4377,747.26367 2146.2601,746.20588 2145.3359,744.35546 C 2144.8595,743.40153 2143.3775,741.49753 2142.043,740.12304 C 2139.0556,737.04622 2135.9421,735.10804 2132.6289,735.1914 Z M 2130.4688,743 C 2129.8426,743.03113 2129.4074,743.57743 2129.0684,744.64453 C 2128.3636,746.86252 2126.6169,749.04684 2124.8809,749.8789 C 2122.3434,751.09505 2118.7511,750.67023 2116.6016,748.90039 C 2116.247,748.60845 2115.4878,748.42674 2114.9141,748.49609 C 2114.0902,748.59568 2113.7585,748.94787 2113.334,750.17382 C 2112.0599,753.85363 2113.1296,758.82129 2115.8574,761.88671 C 2117.1351,763.32261 2120.6817,765.48989 2121.8105,765.52539 C 2122.2875,765.54039 2123.0284,765.708 2123.4551,765.89648 C 2123.8819,766.08495 2124.5791,766.15939 2125.0059,766.0625 C 2125.4327,765.96561 2126.4804,765.78156 2127.334,765.65234 C 2130.4184,765.1854 2133.2321,763.35901 2135.3438,760.45507 C 2136.514,758.84594 2136.8622,757.62872 2137.1133,754.26757 C 2137.4067,750.34026 2136.1185,747.25421 2133.0137,744.44921 C 2131.9118,743.45375 2131.0949,742.96887 2130.4688,743 Z M 2049.1543,787.30273 C 2049.1543,787.60928 2049.333,787.67036 2049.5488,787.58789 C 2048.7383,790.79523 2047.5253,796.55562 2047.3125,798.67187 C 2047.2052,799.73884 2046.9845,800.7866 2046.8223,801 C 2046.66,801.21339 2046.399,802.17254 2046.2441,803.13281 C 2046.0891,804.09307 2045.8281,805.05417 2045.6641,805.26757 C 2045.5001,805.48096 2045.2811,806.26679 2045.1758,807.01367 C 2044.9864,808.35798 2044.319,810.45994 2043.6699,811.76171 C 2043.4851,812.13225 2043.334,812.75368 2043.334,813.14257 C 2043.334,813.53147 2043.0789,814.18734 2042.7656,814.60156 C 2042.4523,815.01578 2042.1903,815.73296 2042.1836,816.19531 C 2042.1768,816.65766 2042.041,817.09488 2041.8809,817.16601 C 2041.7209,817.23714 2040.9843,818.47366 2040.2441,819.91406 C 2039.5039,821.35447 2038.7605,822.5332 2038.5938,822.5332 C 2038.427,822.5332 2038.291,822.76832 2038.291,823.05664 C 2038.291,823.82167 2033.4302,828.72114 2030.7246,830.68359 C 2029.4442,831.61224 2028.3098,832.4744 2028.2031,832.59961 C 2028.0964,832.72482 2027.5726,833.1087 2027.0391,833.45312 C 2026.0698,834.07891 2026.0661,834.07547 2020.541,828.52929 C 2017.3935,825.36976 2015.0164,822.67489 2015.0234,822.27148 C 2015.0302,821.88174 2015.2991,821.21389 2015.6191,820.78711 C 2016.605,819.47208 2049.1543,786.9721 2049.1543,787.30273 Z M 2126.543,803.52148 C 2126.7765,803.52148 2131.0304,807.59795 2135.9961,812.58007 C 2144.868,821.48146 2145.0172,821.6557 2144.5488,822.68359 C 2144.2867,823.2589 2138.3192,829.48482 2131.2871,836.51757 C 2124.2551,843.55033 2118.3903,849.30468 2118.2559,849.30468 C 2118.0113,849.30468 2117.2909,846.76407 2116.6055,843.48437 C 2116.4048,842.5241 2115.9591,839.0933 2115.6133,835.85937 C 2115.0362,830.46179 2115.0348,829.64941 2115.6035,825.96484 C 2116.5831,819.61968 2116.7591,819.00412 2118.9219,814.38476 C 2120.0671,811.93877 2122.8922,807.2704 2123.3438,807.07812 C 2123.5109,807.00699 2123.6484,806.80591 2123.6484,806.63086 C 2123.6484,806.12636 2126.0732,803.52148 2126.543,803.52148 Z" transform="translate(-1967.29 -709.24)" fill="#fff" stroke="none" stroke-width="1.552" stroke-linecap="round" stroke-linejoin="round" stroke-miterlimit="1000" paint-order="stroke markers fill" opacity="1" />
</svg>
