<svg width="619.69" height="614.58" version="1.1" viewBox="0 0 619.69 614.58" xmlns="http://www.w3.org/2000/svg">

  <linearGradient id="f" x1="574.93" x2="248.53" y1="665.87" y2="142.31" gradientTransform="matrix(1,0,0,-1,0,800)" gradientUnits="userSpaceOnUse">
    <stop stop-color="#ffffff" offset=".16" />
    <stop stop-color="#33D9FF" offset=".89" />
  </linearGradient>
  <path class="st1" d="m323.89.085306c-28.699-.70129-56.925 2.9148-83.4 11.09 152.1 30 276.9 102.5 379.2 221.4-38.188-145.36-171.44-229.45-295.8-232.49zm-136.28 68.355c-12.412-.06636-24.95.61601-37.625 2.1348-23.4 2.8-45.3 9.4992-63.4 24.699 230.9 5.8 404.6 105.8 524 303.3.2-13.1 2.2004-27.7-2.5996-39.5-12-29.3-23.4-59.802-41.5-85.102-56.7-79.3-134.9-132.1-223.7-169.7-49.969-21.206-101.39-35.546-155.18-35.834zm-68.758 97.977c-24.577.63672-48.867 5.707-71.867 17.457-17.6 9-33.2 20.5-37.4 44.9 115.8-31.9 219.7-3.7 317.5 53 98.3 57 175.1 133.5 205 251.1 20.8-18.4 24.502-41 19.102-62-7.4-28.8-15.801-59.1-32.201-83-85.8-125-207.3-194.9-355.8-218.3-14.738-2.325-29.588-3.5402-44.334-3.1582zm-19.434 108.19c-24.384.21314-48.596 4.3305-72.334 13.668-28.9 11.4-33.299 23.399-19.699 53.699 92.4-21.9 178.4-1.5 258.9 45 81.1 46.9 141.6 112.2 169.1 205 38.6-11.8 43.601-18.299 34.301-54.199-5.5-21.1-12.401-43.1-23.801-61.6-66.8-108.5-166.4-170-289.4-195.6-19.031-3.9375-38.101-6.1345-57.066-5.9688zm-19.215 109.56c-23.223.13004-45.35 3.8516-65.318 11.711 7.3 16.2 12.1 34.5 23 47.6 5.5 6.7 22.201 4.1012 33.801 5.7012 1.8.2 3.5984.49922 5.3984.69922 102.9 15.3 184.1 65.1 242.1 152 3.4 5.1 8.8984 12.701 13.398 12.701 17.4-.1 34.9-2.8 52.5-4.5-22.106-122.6-179.48-226.61-304.88-225.91zm-3.1445 106.14c-4.1377-.00232-8.0734.27969-11.773.86719 54.6 69.3 124 109.7 213 122.8-31.875-59.531-139.16-123.63-201.23-123.67z" fill="#ffffff" />
  <linearGradient id="e" x1="572.59" x2="246.2" y1="667.33" y2="143.77" gradientTransform="matrix(1,0,0,-1,0,800)" gradientUnits="userSpaceOnUse">
    <stop stop-color="#C6F462" offset=".16" />
    <stop stop-color="#33D9FF" offset=".89" />
  </linearGradient>
  <linearGradient id="d" x1="577.01" x2="250.62" y1="664.57" y2="141.01" gradientTransform="matrix(1,0,0,-1,0,800)" gradientUnits="userSpaceOnUse">
    <stop stop-color="#C6F462" offset=".16" />
    <stop stop-color="#33D9FF" offset=".89" />
  </linearGradient>
  <linearGradient id="c" x1="569.03" x2="242.63" y1="669.55" y2="145.99" gradientTransform="matrix(1,0,0,-1,0,800)" gradientUnits="userSpaceOnUse">
    <stop stop-color="#C6F462" offset=".16" />
    <stop stop-color="#33D9FF" offset=".89" />
  </linearGradient>
  <linearGradient id="b" x1="571.7" x2="245.3" y1="667.89" y2="144.33" gradientTransform="matrix(1,0,0,-1,0,800)" gradientUnits="userSpaceOnUse">
    <stop stop-color="#C6F462" offset=".16" />
    <stop stop-color="#33D9FF" offset=".89" />
  </linearGradient>
  <linearGradient id="a" x1="579.04" x2="252.65" y1="663.31" y2="139.75" gradientTransform="matrix(1,0,0,-1,0,800)" gradientUnits="userSpaceOnUse">
    <stop stop-color="#C6F462" offset=".16" />
    <stop stop-color="#33D9FF" offset=".89" />
  </linearGradient>
</svg>
