<svg version="1.1" viewBox="0 0 208.006 208.008" height="208.008" width="208.006" xmlns="http://www.w3.org/2000/svg">
  <path d="M 173.66,2.3439048 L 205.66,34.343905 A 8,8 0 0 1 205.66,45.663905 L 173.66,77.663905 A 8.0044488,8.0044488 0 0 1 162.34,66.343905 L 180.69,48.003905 H 123.31 L 67.31,104.0039 L 123.31,160.0039 H 180.69 L 162.34,141.6639 A 8.0044488,8.0044488 0 0 1 173.66,130.3439 L 205.66,162.3439 A 8,8 0 0 1 205.66,173.6639 L 173.66,205.6639 A 8.0044488,8.0044488 0 0 1 162.34,194.3439 L 180.69,176.0039 H 120 A 8,8 0 0 1 114.34,173.6639 L 52.69,112.0039 H 8 A 8,8 0 0 1 8,96.003905 H 52.69 L 114.34,34.343905 A 8,8 0 0 1 120,32.003905 H 180.69 L 162.34,13.663905 A 8.0044488,8.0044488 0 0 1 173.66,2.3439048 Z" />
</svg>
