<svg version="1.1" x="0" y="0" viewBox="0 0 397.7 311.7" xml:space="preserve" xmlns="http://www.w3.org/2000/svg">
  <path class="st0" d="M 73.800781 0 C 70.400781 -5.9211895e-16 67.099609 1.4007813 64.599609 3.8007812 L 1.9003906 66.5 C -2.1996094 70.6 0.7 77.599609 6.5 77.599609 L 323.90039 77.599609 C 327.40039 77.599609 330.69961 76.200781 333.09961 73.800781 L 395.80078 11.099609 C 399.90078 6.9996094 396.99922 0 391.19922 0 L 73.800781 0 z M 6.5 116.30078 C 0.7 116.30078 -2.1996094 123.30039 1.9003906 127.40039 L 64.599609 190.09961 C 66.999609 192.49961 70.300781 193.90039 73.800781 193.90039 L 391.19922 193.90039 C 396.99922 193.90039 399.90078 186.90078 395.80078 182.80078 L 333.09961 120.09961 C 330.69961 117.69961 327.40039 116.30078 323.90039 116.30078 L 6.5 116.30078 z M 73.800781 234.09961 C 70.300781 234.09961 66.999609 235.50039 64.599609 237.90039 L 1.9003906 300.59961 C -2.1996094 304.69961 0.7 311.69922 6.5 311.69922 L 323.90039 311.69922 C 327.40039 311.69922 330.69961 310.30039 333.09961 307.90039 L 395.80078 245.19922 C 399.90078 241.09922 396.99922 234.09961 391.19922 234.09961 L 73.800781 234.09961 z" fill="#fff" fill-opacity="1" />
</svg>
