<svg width="32" height="32" fill="#000" viewBox="0 0 256 256" version="1.1" xmlns="http://www.w3.org/2000/svg">
  <path d="M 97.336002,64 C 97.336002,59.581722 100.91772,56 105.336,56 H 216 C 220.41828,56 224,59.581722 224,64 C 224,68.418278 220.41828,72 216,72 H 105.336 C 100.91772,72 97.336002,68.418278 97.336002,64 Z M 216,96 H 40 C 35.581719,96 32.000003,99.581722 32.000003,104 C 32.000003,108.41828 35.581719,112 40,112 H 216 C 220.41828,112 224,108.41828 224,104 C 224,99.581722 220.41828,96 216,96 Z M 216,136 H 40 C 35.581719,136 32.000003,139.58172 32.000003,144 C 32.000003,148.41828 35.581719,152 40,152 H 216 C 220.41828,152 224,148.41828 224,144 C 224,139.58172 220.41828,136 216,136 Z M 150.664,176 H 40 C 35.581719,176 32.000003,179.58172 32.000003,184 C 32.000003,188.41828 35.581719,192 40,192 H 150.664 C 155.08228,192 158.664,188.41828 158.664,184 C 158.664,179.58172 155.08228,176 150.664,176 Z" />
</svg>
