<svg width="32" height="32" fill="#000" viewBox="0 0 256 256" style="--darkreader-inline-fill:#000000" version="1.1" xmlns="http://www.w3.org/2000/svg">
  <path d="M 218.50967,161.94113 L 184.56854,128 L 218.50967,94.058875 A 16,16 0 0 0 218.50967,71.431458 L 184.56854,37.490332 A 16,16 0 0 0 161.94113,37.490332 L 128,71.431458 L 94.058875,37.490332 A 16,16 0 0 0 71.431458,37.490332 L 37.490332,71.431458 A 16,16 0 0 0 37.490332,94.058875 L 71.431458,128 L 37.490332,161.94113 A 16,16 0 0 0 37.490332,184.56854 L 71.431458,218.50967 A 16,16 0 0 0 94.058875,218.50967 L 128,184.56854 L 161.94113,218.50967 A 16,16 0 0 0 184.56854,218.50967 L 218.50967,184.56854 A 16,16 0 0 0 218.50967,161.94113 Z M 173.25483,207.19596 L 133.65685,167.59798 A 8,8 0 0 0 122.34315,167.59798 L 82.745166,207.19596 L 48.804041,173.25483 L 88.40202,133.65685 A 8,8 0 0 0 88.40202,122.34315 L 48.804041,82.745166 L 82.745166,48.804041 L 122.34315,88.40202 A 8,8 0 0 0 133.65685,88.40202 L 173.25483,48.804041 L 207.19596,82.745166 L 167.59798,122.34315 A 8,8 0 0 0 167.59798,133.65685 L 207.19596,173.25483 Z" />
</svg>
